<?xml version="1.0" encoding="UTF-8"?>
<!DOCTYPE svg PUBLIC "-//W3C//DTD SVG 1.1//EN" "http://www.w3.org/Graphics/SVG/1.1/DTD/svg11.dtd">
<!-- Creator: CorelDRAW -->
<svg xmlns="http://www.w3.org/2000/svg" xml:space="preserve" width="11.0317in" height="9.73744in" version="1.1" style="shape-rendering:geometricPrecision; text-rendering:geometricPrecision; image-rendering:optimizeQuality; fill-rule:evenodd; clip-rule:evenodd"
viewBox="0 0 4478.64 3953.2"
 xmlns:xlink="http://www.w3.org/1999/xlink"
 xmlns:xodm="http://www.corel.com/coreldraw/odm/2003">
 <defs>
  <style type="text/css">
   <![CDATA[
    .fil3 {fill:none}
    .fil0 {fill:#0000BA}
    .fil2 {fill:blue;fill-opacity:0.501961}
    .fil1 {fill:#6161FF;fill-opacity:0.501961}
   ]]>
  </style>
   <clipPath id="id0">
    <path d="M3959.76 3953.2l-1328.35 -1830.95c-50.2,-75.01 -75.78,-83.24 60.08,-153.81l725.87 -297.13c129.79,-75.05 110.7,-154.4 -40.53,-235.04l-1184.37 -561.09c-260.92,-98.4 -283.82,-139.98 -117.4,-144.06l2374.18 -359.37c43.88,-1.91 37.97,-367.54 -13.27,-371.76l-4334.11 123.02c-154.79,-7.71 -110.32,261.85 -17.29,303.08l1114.82 659.02c354.79,226.43 355.38,225.44 36.93,319.93l-838.41 305.65c-108.15,54.27 -121.79,97.23 -11.3,170.68l3573.16 2071.83z"/>
   </clipPath>
 </defs>
 <g id="Layer_x0020_1">
  <metadata id="CorelCorpID_0Corel-Layer"/>
  <path class="fil0" d="M3959.76 3953.2l-1328.35 -1830.95c-50.2,-75.01 -75.78,-83.24 60.08,-153.81l725.87 -297.13c129.79,-75.05 110.7,-154.4 -40.53,-235.04l-1184.37 -561.09c-260.92,-98.4 -283.82,-139.98 -117.4,-144.06l2374.18 -359.37c43.88,-1.91 37.97,-367.54 -13.27,-371.76l-4334.11 123.02c-154.79,-7.71 -110.32,261.85 -17.29,303.08l1114.82 659.02c354.79,226.43 355.38,225.44 36.93,319.93l-838.41 305.65c-108.15,54.27 -121.79,97.23 -11.3,170.68l3573.16 2071.83z"/>
  <g style="clip-path:url(#id0)">
   <g id="_2447172843104">
    <path id="_1" class="fil1" d="M2242.69 2976.43l-647.03 -1011.61c-23.64,-47.21 -35.67,-52.42 28.29,-96.81l341.56 -187.06c61.08,-47.24 52.09,-97.2 -19.08,-147.97l-557.33 -353.19c-122.78,-61.95 -133.54,-88.15 -55.23,-90.7l1117.21 -226.25c20.63,-1.19 24.15,-23.79 0.03,-26.45l-2045.81 -130.19c-72.82,-4.85 -51.9,164.88 -8.12,190.81l524.61 414.92c166.95,142.54 167.24,141.89 17.37,201.39l-394.53 192.39c-50.89,34.18 -57.3,61.25 -5.3,107.49l1703.35 1163.23z"/>
    <path class="fil2" d="M4507.15 2439.38l-647.03 -1011.61c-23.64,-47.21 -35.67,-52.42 28.3,-96.81l341.55 -187.06c61.08,-47.24 52.1,-97.2 -19.07,-147.97l-557.33 -353.2c-122.78,-61.95 -133.54,-88.15 -55.23,-90.7l1117.21 -226.25c20.63,-1.19 24.15,-23.8 0.03,-26.44l-2045.82 -130.19c-72.82,-4.85 -51.89,164.88 -8.11,190.81l524.61 414.92c166.94,142.54 167.24,141.89 17.36,201.39l-394.52 192.39c-50.89,34.18 -57.3,61.25 -5.3,107.49l1703.35 1163.23z"/>
    <path class="fil2" d="M4052.87 4587.76l-647.03 -1011.61c-23.64,-47.21 -35.66,-52.42 28.3,-96.81l341.56 -187.06c61.08,-47.24 52.09,-97.2 -19.08,-147.97l-557.33 -353.19c-122.77,-61.96 -133.54,-88.15 -55.22,-90.7l1117.21 -226.25c20.63,-1.2 24.15,-23.79 0.03,-26.45l-2045.81 -130.18c-72.82,-4.85 -51.9,164.88 -8.11,190.81l524.6 414.92c166.95,142.54 167.24,141.89 17.37,201.39l-394.53 192.39c-50.89,34.18 -57.29,61.25 -5.3,107.49l1703.35 1163.23z"/>
   </g>
  </g>
  <path class="fil3" d="M3959.76 3953.2l-1328.35 -1830.95c-50.2,-75.01 -75.78,-83.24 60.08,-153.81l725.87 -297.13c129.79,-75.05 110.7,-154.4 -40.53,-235.04l-1184.37 -561.09c-260.92,-98.4 -283.82,-139.98 -117.4,-144.06l2374.18 -359.37c43.88,-1.91 37.97,-367.54 -13.27,-371.76l-4334.11 123.02c-154.79,-7.71 -110.32,261.85 -17.29,303.08l1114.82 659.02c354.79,226.43 355.38,225.44 36.93,319.93l-838.41 305.65c-108.15,54.27 -121.79,97.23 -11.3,170.68l3573.16 2071.83z"/>
 </g>
</svg>
